<svg xmlns="http://www.w3.org/2000/svg"  viewBox="0 0 100 100" width="50px" height="50px"><path d="M 69.199219 9.8164062 C 68.130469 9.8594375 67.342906 10.393875 66.535156 11.390625 C 62.044603 16.927112 57.65608 22.535937 53.542969 28.357422 C 48.100826 22.613598 42.907909 16.550365 36.798828 11.501953 C 32.088828 7.6109531 25.633922 13.227516 22.544922 16.728516 C 20.549922 18.988516 18.805625 21.543672 17.765625 24.388672 C 17.102625 26.201672 16.803328 27.808609 17.861328 29.474609 C 20.401328 33.477609 24.064797 36.943125 27.341797 40.328125 C 30.928403 44.032809 34.568397 47.76468 38.458984 51.166016 C 34.10978 56.761362 29.043177 61.76508 24.8125 67.458984 C 23.5765 69.121984 21.858219 70.801953 22.574219 73.001953 C 23.088219 74.581953 24.226969 75.964172 25.292969 77.201172 C 27.897969 80.225172 31.162609 83.093641 34.724609 84.931641 C 36.088609 85.635641 37.757125 86.361484 39.328125 86.021484 C 41.195125 85.617484 42.463125 83.401484 43.578125 82.021484 C 47.871575 76.709885 51.813176 71.127491 55.962891 65.705078 C 58.629744 68.062403 61.223931 70.499782 63.826172 72.927734 C 65.256172 74.261734 66.690391 75.591578 68.150391 76.892578 C 69.341391 77.953578 70.619578 79.37225 72.017578 80.15625 C 73.346578 80.90125 74.958516 80.102 76.103516 79.375 C 77.760516 78.324 79.249859 76.974844 80.630859 75.589844 C 82.229859 73.987844 83.71225 72.258969 85.03125 70.417969 C 86.04125 69.008969 87.106187 67.399594 87.492188 65.683594 C 87.907188 63.843594 87.089937 62.684594 85.960938 61.308594 C 84.397937 59.404594 82.596594 57.690953 80.808594 56.001953 C 76.765029 52.184887 72.443981 48.640694 68.472656 44.746094 C 72.345308 39.552607 76.661183 34.707182 80.519531 29.501953 C 81.408531 28.302953 82.269172 27.082172 83.076172 25.826172 C 83.599172 25.012172 84.112391 24.257625 84.150391 23.265625 C 84.205391 21.846625 83.481312 20.466984 82.695312 19.333984 C 80.570312 16.270984 77.525141 13.703859 74.369141 11.755859 C 73.147141 11.001859 71.788047 10.2525 70.373047 9.9375 C 69.942797 9.84175 69.555469 9.8020625 69.199219 9.8164062 z M 69.222656 12.791016 C 69.229145 12.793774 69.2411 12.795345 69.244141 12.798828 C 69.244141 12.798828 69.246094 12.798828 69.246094 12.798828 C 69.313252 12.792585 69.378591 12.789 69.4375 12.800781 C 69.1015 12.731781 69.772141 12.876344 69.869141 12.902344 C 70.137141 12.975344 70.403156 13.067875 70.660156 13.171875 C 71.170156 13.377875 71.836047 13.740687 72.373047 14.054688 C 75.136047 15.668688 77.800625 17.843812 79.765625 20.382812 C 80.120625 20.840812 80.447656 21.327891 80.722656 21.837891 C 80.867656 22.106891 80.931141 22.237063 80.994141 22.414062 C 81.109141 22.738063 81.149391 22.994859 81.150391 23.005859 C 81.188391 23.358859 81.245328 23.037703 81.111328 23.345703 C 81.237328 23.057703 81.141328 23.2495 81.111328 23.3125 C 80.944328 23.6575 80.693328 23.988547 80.486328 24.310547 C 79.716328 25.507547 78.897734 26.673359 78.052734 27.818359 C 73.939734 33.395359 69.281219 38.544484 65.199219 44.146484 C 64.758806 44.750987 64.886241 45.341179 65.263672 45.753906 C 65.314485 45.825189 65.366202 45.896708 65.433594 45.964844 C 68.792594 49.358844 72.485719 52.429531 76.011719 55.644531 C 77.922719 57.387531 79.822906 59.147 81.628906 61 C 82.288906 61.677 82.937781 62.365938 83.550781 63.085938 C 83.787781 63.363937 84.020328 63.6435 84.236328 63.9375 C 84.343328 64.0835 84.444875 64.234766 84.546875 64.384766 C 84.63633 64.516974 84.622 64.483407 84.630859 64.484375 C 84.607882 64.583895 84.649177 64.719525 84.623047 64.820312 C 84.702047 64.509312 84.498031 65.267578 84.457031 65.392578 C 84.241031 66.056578 83.856266 66.725531 83.447266 67.394531 C 82.459266 69.011531 81.265047 70.495391 79.998047 71.900391 C 78.704047 73.334391 77.322688 74.721922 75.804688 75.919922 C 75.36441 76.267232 74.901584 76.590936 74.421875 76.882812 L 58.267578 59.701172 C 57.830578 59.236172 57.079219 59.280969 56.699219 59.792969 L 54.785156 62.369141 C 54.753524 62.40048 54.717367 62.426799 54.689453 62.462891 C 50.993453 67.233891 47.477828 72.138875 43.798828 76.921875 C 42.538536 78.56074 41.214823 80.139421 39.894531 81.724609 C 37.60487 74.988737 32.351329 72.266861 28.589844 71.169922 L 46.4375 50.494141 C 47.0425 49.794141 46.989406 48.742422 46.316406 48.107422 L 24.662109 27.660156 C 32.321862 24.183805 34.664551 17.638471 35.376953 14.146484 C 35.699204 14.444706 36.017097 14.764623 36.285156 15.001953 C 37.092156 15.716953 37.883109 16.450313 38.662109 17.195312 C 40.304109 18.765313 41.894844 20.386344 43.464844 22.027344 C 46.549844 25.250344 49.540672 28.563437 52.638672 31.773438 C 52.726184 31.864142 52.817219 31.937969 52.910156 32 L 54.878906 34.021484 C 55.409906 34.566484 56.318922 34.432812 56.669922 33.757812 L 68.865234 13.257812 C 68.899539 13.215843 68.932465 13.172806 68.966797 13.130859 C 69.189668 12.858605 69.167573 12.870368 69.201172 12.818359 C 69.185936 12.818499 69.158041 12.81185 69.132812 12.806641 L 69.136719 12.798828 C 69.162344 12.801081 69.189047 12.800791 69.216797 12.798828 C 69.21743 12.797772 69.222101 12.79198 69.222656 12.791016 z M 69.216797 12.798828 C 69.215177 12.801531 69.203322 12.815031 69.201172 12.818359 C 69.235564 12.818044 69.251139 12.809532 69.244141 12.798828 C 69.234553 12.79971 69.226273 12.798158 69.216797 12.798828 z M 84.636719 64.490234 C 84.637075 64.489998 84.642413 64.496601 84.642578 64.496094 C 84.64017 64.497126 84.640078 64.506921 84.640625 64.515625 C 84.639334 64.506679 84.637112 64.496946 84.636719 64.490234 z"/></svg>